<?xml version="1.0" standalone="no"?>
<!DOCTYPE svg PUBLIC "-//W3C//DTD SVG 20010904//EN"
 "http://www.w3.org/TR/2001/REC-SVG-20010904/DTD/svg10.dtd">
<svg version="1.0" xmlns="http://www.w3.org/2000/svg"
 width="160.000000pt" height="160.000000pt" viewBox="0 0 160.000000 160.000000"
 preserveAspectRatio="xMidYMid meet">
<metadata>
Created by potrace 1.11, written by Peter Selinger 2001-2013
</metadata>
<g transform="translate(0.000000,160.000000) scale(0.100000,-0.100000)"
fill="#000000" stroke="none">
<path d="M1073 1340 c-182 -38 -270 -178 -223 -350 24 -89 145 -170 260 -173
42 -2 45 0 48 26 2 16 -2 29 -10 31 -7 2 -46 14 -86 26 -50 14 -85 32 -110 54
-35 32 -36 37 -39 108 -1 58 2 81 17 105 44 73 148 115 270 109 156 -7 247
-74 281 -210 9 -35 17 -48 35 -52 37 -9 46 3 39 53 -15 109 -98 214 -201 253
-66 25 -209 35 -281 20z"/>
<path d="M13 1333 c-10 -4 -13 -119 -13 -528 0 -502 1 -524 19 -530 42 -13 51
2 51 89 3 426 0 958 -5 966 -6 10 -31 12 -52 3z"/>
<path d="M684 1328 c-4 -7 -8 -242 -8 -522 -1 -526 0 -536 38 -536 35 0 36 15
36 531 0 279 -3 514 -6 523 -7 19 -49 21 -60 4z"/>
<path d="M140 866 c-14 -14 -12 -56 3 -58 32 -4 453 -4 465 0 16 5 16 49 0 59
-19 11 -457 10 -468 -1z"/>
<path d="M1239 863 c-9 -55 -7 -57 77 -79 154 -40 203 -85 208 -190 9 -163
-86 -251 -279 -260 -209 -9 -349 86 -372 251 -6 46 -14 57 -45 62 -35 6 -41
-47 -16 -127 51 -163 189 -253 398 -259 276 -7 430 151 379 388 -15 70 -55
121 -125 158 -79 41 -222 77 -225 56z"/>
</g>
</svg>
